<svg width="67" height="54" viewBox="0 0 67 54" fill="none" xmlns="http://www.w3.org/2000/svg">
<path d="M23.5234 25.2047C26.2434 26.7347 28.4818 28.1514 30.2384 29.4547C31.9951 30.7014 33.4401 32.203 34.5734 33.9597C35.7634 35.6597 36.3584 37.6147 36.3584 39.8247C36.3584 42.5447 35.4518 44.9814 33.6384 47.1347C31.8251 49.288 29.4168 50.9597 26.4134 52.1497C23.4668 53.283 20.2934 53.8497 16.8934 53.8497C12.3034 53.8497 8.36511 52.858 5.07844 50.8747C1.79177 48.8347 0.148438 45.8597 0.148438 41.9497C0.148438 38.663 1.3101 35.7164 3.63344 33.1097C5.95677 30.4464 8.93177 28.4347 12.5584 27.0747C9.15844 25.148 6.60844 23.2214 4.90844 21.2947C3.20844 19.3114 2.35844 16.9597 2.35844 14.2397C2.35844 11.6897 3.12344 9.45135 4.65344 7.52469C6.18344 5.54135 8.25177 4.03969 10.8584 3.01969C13.4651 1.94302 16.3834 1.40469 19.6134 1.40469C24.0901 1.40469 27.7734 2.36802 30.6634 4.29469C33.6101 6.22135 35.0834 8.96969 35.0834 12.5397C35.0834 15.8264 33.8934 18.5747 31.5134 20.7847C29.1334 22.9947 26.4701 24.468 23.5234 25.2047ZM20.1234 3.69969C17.1201 3.69969 14.7118 4.43635 12.8984 5.90969C11.0851 7.38302 10.1784 9.36636 10.1784 11.8597C10.1784 14.4664 11.1134 16.648 12.9834 18.4047C14.8534 20.1047 17.6868 22.003 21.4834 24.0997C26.9801 21.6064 29.7284 17.7814 29.7284 12.6247C29.7284 9.73469 28.8784 7.52469 27.1784 5.99469C25.4784 4.46469 23.1268 3.69969 20.1234 3.69969ZM17.4034 51.5547C20.6334 51.5547 23.2684 50.7897 25.3084 49.2597C27.3484 47.673 28.3684 45.4914 28.3684 42.7147C28.3684 40.5047 27.7168 38.5214 26.4134 36.7647C25.1101 35.008 23.5518 33.5347 21.7384 32.3447C19.9251 31.1547 17.5734 29.7947 14.6834 28.2647C12.1901 29.5114 10.0651 31.3814 8.30844 33.8747C6.60844 36.3114 5.75844 38.8897 5.75844 41.6097C5.75844 44.4997 6.77844 46.8797 8.81844 48.7497C10.9151 50.6197 13.7768 51.5547 17.4034 51.5547Z" fill="white"/>
<path d="M44.1924 9.39469C47.479 8.43136 50.794 6.64635 54.1374 4.03969C55.3274 3.13302 56.6307 1.97136 58.0474 0.554688H59.4924V49.3447C59.4924 50.478 60.0307 51.0447 61.1074 51.0447L66.6324 50.9597V52.9997H45.5524V50.9597L51.1624 51.0447C52.3524 51.0447 52.9474 50.478 52.9474 49.3447V10.7547C52.9474 10.2447 52.7774 9.84802 52.4374 9.56469C52.0974 9.28135 51.6724 9.25302 51.1624 9.47969L44.8724 12.2847L44.1924 9.39469Z" fill="white"/>
</svg>
